<svg width="1591" height="1121" xmlns="http://www.w3.org/2000/svg" xmlns:xlink="http://www.w3.org/1999/xlink" xml:space="preserve" overflow="hidden"><defs><clipPath id="clip0"><rect x="1795" y="353" width="1591" height="1121"/></clipPath></defs><g clip-path="url(#clip0)" transform="translate(-1795 -353)"><rect x="1795.5" y="353.5" width="1589" height="1120" fill="#FFFFFF"/><rect x="1795.5" y="353.5" width="1589" height="1120" stroke="#D9D9D9" stroke-width="3.4375" stroke-miterlimit="2" fill="none"/><g><path d="M1918.5 1292.5 3354.5 1292.5" stroke="#D9D9D9" stroke-width="3.4375" stroke-miterlimit="2" fill="none"/><path d="M1918.5 1178.5 3354.5 1178.5" stroke="#D9D9D9" stroke-width="3.4375" stroke-miterlimit="2" fill="none"/><path d="M1918.5 1064.5 3354.5 1064.5" stroke="#D9D9D9" stroke-width="3.4375" stroke-miterlimit="2" fill="none"/><path d="M1918.5 949.5 3354.5 949.5" stroke="#D9D9D9" stroke-width="3.4375" stroke-miterlimit="2" fill="none"/><path d="M1918.5 835.5 3354.5 835.5" stroke="#D9D9D9" stroke-width="3.4375" stroke-miterlimit="2" fill="none"/><path d="M1918.5 721.5 3354.5 721.5" stroke="#D9D9D9" stroke-width="3.4375" stroke-miterlimit="2" fill="none"/><path d="M1918.5 607.5 3354.5 607.5" stroke="#D9D9D9" stroke-width="3.4375" stroke-miterlimit="2" fill="none"/><path d="M1918.5 492.5 3354.5 492.5" stroke="#D9D9D9" stroke-width="3.4375" stroke-miterlimit="2" fill="none"/><path d="M2309.5 1212.5 2337.5 1212.5" stroke="#346AC3" stroke-width="3.4375" stroke-miterlimit="2" fill="none"/><path d="M2323.5 1182.5 2323.5 1212.5" stroke="#346AC3" stroke-width="3.4375" stroke-miterlimit="2" fill="none"/><path d="M2309.5 1116.5 2337.5 1116.5" stroke="#346AC3" stroke-width="3.4375" stroke-miterlimit="2" fill="none"/><path d="M2323.5 1116.5 2323.5 1146.5" stroke="#346AC3" stroke-width="3.4375" stroke-miterlimit="2" fill="none"/><rect x="2276.5" y="1146.5" width="94" height="36" fill="#4285F4"/><rect x="2276.5" y="1146.5" width="94" height="36" stroke="#346AC3" stroke-width="3.4375" stroke-miterlimit="2" fill="none"/><path d="M2276.5 1146.5 2370.5 1146.5" stroke="#346AC3" stroke-width="3.4375" stroke-miterlimit="2" fill="none"/><path d="M2276.5 1182.5 2370.5 1182.5" stroke="#346AC3" stroke-width="3.4375" stroke-miterlimit="2" fill="none"/><path d="M2276.5 1169.5 2370.5 1169.5" stroke="#346AC3" stroke-width="3.4375" stroke-miterlimit="2" fill="none"/><path d="M2309.5 1179.5 2337.5 1151.5" stroke="#346AC3" stroke-width="3.4375" stroke-miterlimit="2" fill="none"/><path d="M2309.5 1151.5 2337.5 1179.5" stroke="#346AC3" stroke-width="3.4375" stroke-miterlimit="2" fill="none"/><path d="M2411.5 1231.5 2439.5 1231.5" stroke="#BB352A" stroke-width="3.4375" stroke-miterlimit="2" fill="none"/><path d="M2425.5 1210.5 2425.5 1231.5" stroke="#BB352A" stroke-width="3.4375" stroke-miterlimit="2" fill="none"/><path d="M2411.5 1160.5 2439.5 1160.5" stroke="#BB352A" stroke-width="3.4375" stroke-miterlimit="2" fill="none"/><path d="M2425.5 1160.5 2425.5 1190.5" stroke="#BB352A" stroke-width="3.4375" stroke-miterlimit="2" fill="none"/><rect x="2378.5" y="1190.5" width="94" height="20" fill="#EA4335"/><rect x="2378.5" y="1190.5" width="94" height="20" stroke="#BB352A" stroke-width="3.4375" stroke-miterlimit="2" fill="none"/><path d="M2378.5 1190.5 2472.5 1190.5" stroke="#BB352A" stroke-width="3.4375" stroke-miterlimit="2" fill="none"/><path d="M2378.5 1210.5 2472.5 1210.5" stroke="#BB352A" stroke-width="3.4375" stroke-miterlimit="2" fill="none"/><path d="M2378.5 1199.5 2472.5 1199.5" stroke="#BB352A" stroke-width="3.4375" stroke-miterlimit="2" fill="none"/><circle cx="2425.5" cy="1155.5" r="7" fill="#EA4335"/><circle cx="2425.5" cy="1155.5" r="7" stroke="#BB352A" stroke-width="3.4375" stroke-miterlimit="2" fill="none"/><path d="M2411.5 1213.5 2439.5 1185.5" stroke="#BB352A" stroke-width="3.4375" stroke-miterlimit="2" fill="none"/><path d="M2411.5 1185.5 2439.5 1213.5" stroke="#BB352A" stroke-width="3.4375" stroke-miterlimit="2" fill="none"/><path d="M2515.5 1244.5 2543.5 1244.5" stroke="#C89603" stroke-width="3.4375" stroke-miterlimit="2" fill="none"/><path d="M2529.5 1219.5 2529.5 1244.5" stroke="#C89603" stroke-width="3.4375" stroke-miterlimit="2" fill="none"/><path d="M2515.5 1164.5 2543.5 1164.5" stroke="#C89603" stroke-width="3.4375" stroke-miterlimit="2" fill="none"/><path d="M2529.5 1164.5 2529.5 1197.5" stroke="#C89603" stroke-width="3.4375" stroke-miterlimit="2" fill="none"/><rect x="2483.5" y="1197.5" width="93" height="22" fill="#FBBC04"/><rect x="2483.5" y="1197.5" width="93" height="22" stroke="#C89603" stroke-width="3.4375" stroke-miterlimit="2" fill="none"/><path d="M2483.5 1197.5 2576.5 1197.5" stroke="#C89603" stroke-width="3.4375" stroke-miterlimit="2" fill="none"/><path d="M2483.5 1219.5 2576.5 1219.5" stroke="#C89603" stroke-width="3.4375" stroke-miterlimit="2" fill="none"/><path d="M2483.5 1211.5 2576.5 1211.5" stroke="#C89603" stroke-width="3.4375" stroke-miterlimit="2" fill="none"/><ellipse cx="2529.5" cy="1142" rx="7" ry="6.5" fill="#FBBC04"/><ellipse cx="2529.5" cy="1142" rx="7" ry="6.5" stroke="#C89603" stroke-width="3.4375" stroke-miterlimit="2" fill="none"/><path d="M2516.5 1221.5 2543.5 1194.5" stroke="#C89603" stroke-width="3.4375" stroke-miterlimit="2" fill="none"/><path d="M2516.5 1194.5 2543.5 1221.5" stroke="#C89603" stroke-width="3.4375" stroke-miterlimit="2" fill="none"/><path d="M2619.5 1206.5 2646.5 1206.5" stroke="#298642" stroke-width="3.4375" stroke-miterlimit="2" fill="none"/><path d="M2632.5 1132.5 2632.5 1206.5" stroke="#298642" stroke-width="3.4375" stroke-miterlimit="2" fill="none"/><path d="M2619.5 977.5 2646.5 977.5" stroke="#298642" stroke-width="3.4375" stroke-miterlimit="2" fill="none"/><path d="M2632.5 977.5 2632.5 1070.5" stroke="#298642" stroke-width="3.4375" stroke-miterlimit="2" fill="none"/><rect x="2587.5" y="1070.5" width="91" height="62" fill="#34A853"/><rect x="2587.5" y="1070.5" width="91" height="62" stroke="#298642" stroke-width="3.4375" stroke-miterlimit="2" fill="none"/><path d="M2587.5 1070.5 2678.5 1070.5" stroke="#298642" stroke-width="3.4375" stroke-miterlimit="2" fill="none"/><path d="M2587.5 1132.5 2678.5 1132.5" stroke="#298642" stroke-width="3.4375" stroke-miterlimit="2" fill="none"/><path d="M2587.5 1097.5 2678.5 1097.5" stroke="#298642" stroke-width="3.4375" stroke-miterlimit="2" fill="none"/><ellipse cx="2633" cy="963.5" rx="6.5" ry="7" fill="#34A853"/><ellipse cx="2633" cy="963.5" rx="6.5" ry="7" stroke="#298642" stroke-width="3.4375" stroke-miterlimit="2" fill="none"/><path d="M2619.5 1108.5 2646.5 1080.5" stroke="#298642" stroke-width="3.4375" stroke-miterlimit="2" fill="none"/><path d="M2619.5 1080.5 2646.5 1108.5" stroke="#298642" stroke-width="3.4375" stroke-miterlimit="2" fill="none"/><path d="M2722.5 1169.5 2750.5 1169.5" stroke="#CC5700" stroke-width="3.4375" stroke-miterlimit="2" fill="none"/><path d="M2736.5 1091.5 2736.5 1169.5" stroke="#CC5700" stroke-width="3.4375" stroke-miterlimit="2" fill="none"/><path d="M2722.5 895.5 2750.5 895.5" stroke="#CC5700" stroke-width="3.4375" stroke-miterlimit="2" fill="none"/><path d="M2736.5 895.5 2736.5 1003.5" stroke="#CC5700" stroke-width="3.4375" stroke-miterlimit="2" fill="none"/><rect x="2689.5" y="1003.5" width="93" height="88" fill="#FF6D01"/><rect x="2689.5" y="1003.5" width="93" height="88" stroke="#CC5700" stroke-width="3.4375" stroke-miterlimit="2" fill="none"/><path d="M2689.5 1003.5 2782.5 1003.5" stroke="#CC5700" stroke-width="3.4375" stroke-miterlimit="2" fill="none"/><path d="M2689.5 1091.5 2782.5 1091.5" stroke="#CC5700" stroke-width="3.4375" stroke-miterlimit="2" fill="none"/><path d="M2689.5 1049.5 2782.5 1049.5" stroke="#CC5700" stroke-width="3.4375" stroke-miterlimit="2" fill="none"/><ellipse cx="2736" cy="849.5" rx="6.5" ry="7" fill="#FF6D01"/><ellipse cx="2736" cy="849.5" rx="6.5" ry="7" stroke="#CC5700" stroke-width="3.4375" stroke-miterlimit="2" fill="none"/><path d="M2722.5 1057.5 2749.5 1029.5" stroke="#CC5700" stroke-width="3.4375" stroke-miterlimit="2" fill="none"/><path d="M2722.5 1029.5 2749.5 1057.5" stroke="#CC5700" stroke-width="3.4375" stroke-miterlimit="2" fill="none"/><path d="M2826.5 1242.5 2854.5 1242.5" stroke="#38979E" stroke-width="3.4375" stroke-miterlimit="2" fill="none"/><path d="M2840.5 1210.5 2840.5 1242.5" stroke="#38979E" stroke-width="3.4375" stroke-miterlimit="2" fill="none"/><path d="M2826.5 1123.5 2854.5 1123.5" stroke="#38979E" stroke-width="3.4375" stroke-miterlimit="2" fill="none"/><path d="M2840.5 1123.5 2840.5 1171.5" stroke="#38979E" stroke-width="3.4375" stroke-miterlimit="2" fill="none"/><rect x="2793.5" y="1171.5" width="94" height="39" fill="#46BDC6"/><rect x="2793.5" y="1171.5" width="94" height="39" stroke="#38979E" stroke-width="3.4375" stroke-miterlimit="2" fill="none"/><path d="M2793.5 1171.5 2887.5 1171.5" stroke="#38979E" stroke-width="3.4375" stroke-miterlimit="2" fill="none"/><path d="M2793.5 1210.5 2887.5 1210.5" stroke="#38979E" stroke-width="3.4375" stroke-miterlimit="2" fill="none"/><path d="M2793.5 1187.5 2887.5 1187.5" stroke="#38979E" stroke-width="3.4375" stroke-miterlimit="2" fill="none"/><circle cx="2840.5" cy="1105.5" r="7" fill="#46BDC6"/><circle cx="2840.5" cy="1105.5" r="7" stroke="#38979E" stroke-width="3.4375" stroke-miterlimit="2" fill="none"/><path d="M2826.5 1201.5 2854.5 1174.5" stroke="#38979E" stroke-width="3.4375" stroke-miterlimit="2" fill="none"/><path d="M2826.5 1174.5 2854.5 1201.5" stroke="#38979E" stroke-width="3.4375" stroke-miterlimit="2" fill="none"/><path d="M2928.5 1164.5 2956.5 1164.5" stroke="#083A8C" stroke-width="3.4375" stroke-miterlimit="2" fill="none"/><path d="M2942.5 1045.5 2942.5 1164.5" stroke="#083A8C" stroke-width="3.4375" stroke-miterlimit="2" fill="none"/><path d="M2928.5 664.5 2956.5 664.5" stroke="#083A8C" stroke-width="3.4375" stroke-miterlimit="2" fill="none"/><path d="M2942.5 664.5 2942.5 884.5" stroke="#083A8C" stroke-width="3.4375" stroke-miterlimit="2" fill="none"/><rect x="2895.5" y="884.5" width="94" height="161" fill="#0A49B0"/><rect x="2895.5" y="884.5" width="94" height="161" stroke="#083A8C" stroke-width="3.4375" stroke-miterlimit="2" fill="none"/><path d="M2895.5 884.5 2989.5 884.5" stroke="#083A8C" stroke-width="3.4375" stroke-miterlimit="2" fill="none"/><path d="M2895.5 1045.5 2989.5 1045.5" stroke="#083A8C" stroke-width="3.4375" stroke-miterlimit="2" fill="none"/><path d="M2895.5 967.5 2989.5 967.5" stroke="#083A8C" stroke-width="3.4375" stroke-miterlimit="2" fill="none"/><circle cx="2942.5" cy="641.5" r="7" fill="#0A49B0"/><circle cx="2942.5" cy="641.5" r="7" stroke="#083A8C" stroke-width="3.4375" stroke-miterlimit="2" fill="none"/><circle cx="2942.5" cy="540.5" r="7" fill="#0A49B0"/><circle cx="2942.5" cy="540.5" r="7" stroke="#083A8C" stroke-width="3.4375" stroke-miterlimit="2" fill="none"/><path d="M2928.5 961.5 2956.5 933.5" stroke="#083A8C" stroke-width="3.4375" stroke-miterlimit="2" fill="none"/><path d="M2928.5 933.5 2956.5 961.5" stroke="#083A8C" stroke-width="3.4375" stroke-miterlimit="2" fill="none"/></g><path d="M1918.5 1292.5 1918.5 492.5" stroke="#D9D9D9" stroke-width="3.4375" stroke-miterlimit="2" fill="none"/><text fill="#595959" font-family="Arial,Arial_MSFontService,sans-serif" font-weight="400" font-size="12" transform="matrix(3.4375 0 0 3.4375 1866.09 1268.97)" x="0.0474432" y="3.30326">0<tspan font-size="12" x="-6.6457" y="-29.9248">50</tspan><tspan font-size="12" x="-13.3388" y="-63.2376">100</tspan><tspan font-size="12" x="-13.3388" y="-96.4657">150</tspan><tspan font-size="12" x="-13.3388" y="-129.694">200</tspan><tspan font-size="12" x="-13.3388" y="-163.007">250</tspan><tspan font-size="12" x="-13.3388" y="-196.235">300</tspan><tspan font-size="12" x="-13.3388" y="-229.463">350</tspan></text><path d="" stroke="#D9D9D9" stroke-width="3.4375" stroke-miterlimit="2" fill="none"/><path d="" stroke="#D9D9D9" stroke-width="3.4375" stroke-miterlimit="2" fill="none"/><path d="" stroke="#D9D9D9" stroke-width="3.4375" stroke-miterlimit="2" fill="none"/><path d="" stroke="#D9D9D9" stroke-width="3.4375" stroke-miterlimit="2" fill="none"/><path d="" stroke="#D9D9D9" stroke-width="3.4375" stroke-miterlimit="2" fill="none"/><path d="" stroke="#D9D9D9" stroke-width="3.4375" stroke-miterlimit="2" fill="none"/><path d="" stroke="#D9D9D9" stroke-width="3.4375" stroke-miterlimit="2" fill="none"/><path d="" stroke="#D9D9D9" stroke-width="3.4375" stroke-miterlimit="2" fill="none"/><path d="" stroke="#D9D9D9" stroke-width="3.4375" stroke-miterlimit="2" fill="none"/><path d="" stroke="#D9D9D9" stroke-width="3.4375" stroke-miterlimit="2" fill="none"/><path d="" stroke="#D9D9D9" stroke-width="3.4375" stroke-miterlimit="2" fill="none"/><path d="" stroke="#D9D9D9" stroke-width="3.4375" stroke-miterlimit="2" fill="none"/><path d="" stroke="#D9D9D9" stroke-width="3.4375" stroke-miterlimit="2" fill="none"/><path d="" stroke="#D9D9D9" stroke-width="3.4375" stroke-miterlimit="2" fill="none"/><path d="" stroke="#D9D9D9" stroke-width="3.4375" stroke-miterlimit="2" fill="none"/><path d="" stroke="#D9D9D9" stroke-width="3.4375" stroke-miterlimit="2" fill="none"/><path d="" stroke="#D9D9D9" stroke-width="3.4375" stroke-miterlimit="2" fill="none"/><path d="" stroke="#D9D9D9" stroke-width="3.4375" stroke-miterlimit="2" fill="none"/><path d="" stroke="#D9D9D9" stroke-width="3.4375" stroke-miterlimit="2" fill="none"/><path d="" stroke="#D9D9D9" stroke-width="3.4375" stroke-miterlimit="2" fill="none"/><path d="" stroke="#D9D9D9" stroke-width="3.4375" stroke-miterlimit="2" fill="none"/><path d="" stroke="#D9D9D9" stroke-width="3.4375" stroke-miterlimit="2" fill="none"/><path d="" stroke="#D9D9D9" stroke-width="3.4375" stroke-miterlimit="2" fill="none"/><path d="" stroke="#D9D9D9" stroke-width="3.4375" stroke-miterlimit="2" fill="none"/><path d="" stroke="#D9D9D9" stroke-width="3.4375" stroke-miterlimit="2" fill="none"/><path d="" stroke="#D9D9D9" stroke-width="3.4375" stroke-miterlimit="2" fill="none"/><path d="" stroke="#D9D9D9" stroke-width="3.4375" stroke-miterlimit="2" fill="none"/><path d="" stroke="#D9D9D9" stroke-width="3.4375" stroke-miterlimit="2" fill="none"/><path d="" stroke="#D9D9D9" stroke-width="3.4375" stroke-miterlimit="2" fill="none"/><path d="" stroke="#D9D9D9" stroke-width="3.4375" stroke-miterlimit="2" fill="none"/><path d="" stroke="#D9D9D9" stroke-width="3.4375" stroke-miterlimit="2" fill="none"/><path d="" stroke="#D9D9D9" stroke-width="3.4375" stroke-miterlimit="2" fill="none"/><path d="" stroke="#D9D9D9" stroke-width="3.4375" stroke-miterlimit="2" fill="none"/><path d="" stroke="#D9D9D9" stroke-width="3.4375" stroke-miterlimit="2" fill="none"/><path d="" stroke="#D9D9D9" stroke-width="3.4375" stroke-miterlimit="2" fill="none"/><path d="" stroke="#D9D9D9" stroke-width="3.4375" stroke-miterlimit="2" fill="none"/><path d="" stroke="#D9D9D9" stroke-width="3.4375" stroke-miterlimit="2" fill="none"/><path d="" stroke="#D9D9D9" stroke-width="3.4375" stroke-miterlimit="2" fill="none"/><path d="" stroke="#D9D9D9" stroke-width="3.4375" stroke-miterlimit="2" fill="none"/><path d="" stroke="#D9D9D9" stroke-width="3.4375" stroke-miterlimit="2" fill="none"/><path d="" stroke="#D9D9D9" stroke-width="3.4375" stroke-miterlimit="2" fill="none"/><path d="" stroke="#D9D9D9" stroke-width="3.4375" stroke-miterlimit="2" fill="none"/><path d="" stroke="#D9D9D9" stroke-width="3.4375" stroke-miterlimit="2" fill="none"/><path d="" stroke="#D9D9D9" stroke-width="3.4375" stroke-miterlimit="2" fill="none"/><g><text fill="#595959" font-family="Arial,Arial_MSFontService,sans-serif" font-weight="400" font-size="64" transform="translate(2104.87 438)">Number of Moves Made (Minmax) </text></g><rect x="2059" y="1334" width="1061" height="114" fill="#000000" fill-opacity="0"/><rect x="2099.5" y="1374.5" width="33" height="33" fill="#4285F4"/><rect x="2099.5" y="1374.5" width="33" height="33" stroke="#346AC3" stroke-width="3.4375" stroke-miterlimit="2" fill="none"/><text fill="#595959" font-family="Arial,Arial_MSFontService,sans-serif" font-weight="400" font-size="12" transform="matrix(3.4375 0 0 3.4375 2149.37 1367.17)" x="0.0463068" y="3.28601">1:1</text><rect x="2240.5" y="1374.5" width="33" height="33" fill="#EA4335"/><rect x="2240.5" y="1374.5" width="33" height="33" stroke="#BB352A" stroke-width="3.4375" stroke-miterlimit="2" fill="none"/><text fill="#595959" font-family="Arial,Arial_MSFontService,sans-serif" font-weight="400" font-size="12" transform="matrix(3.4375 0 0 3.4375 2289.79 1367.17)" x="0.0463068" y="3.28601">4:1</text><rect x="2380.5" y="1374.5" width="33" height="33" fill="#FBBC04"/><rect x="2380.5" y="1374.5" width="33" height="33" stroke="#C89603" stroke-width="3.4375" stroke-miterlimit="2" fill="none"/><text fill="#595959" font-family="Arial,Arial_MSFontService,sans-serif" font-weight="400" font-size="12" transform="matrix(3.4375 0 0 3.4375 2430.2 1367.17)" x="0.09375" y="3.28601">16:1</text><rect x="2544.5" y="1374.5" width="33" height="33" fill="#34A853"/><rect x="2544.5" y="1374.5" width="33" height="33" stroke="#298642" stroke-width="3.4375" stroke-miterlimit="2" fill="none"/><text fill="#595959" font-family="Arial,Arial_MSFontService,sans-serif" font-weight="400" font-size="12" transform="matrix(3.4375 0 0 3.4375 2593.79 1367.17)" x="0.0463068" y="3.28601">1:4</text><rect x="2684.5" y="1374.5" width="33" height="33" fill="#FF6D01"/><rect x="2684.5" y="1374.5" width="33" height="33" stroke="#CC5700" stroke-width="3.4375" stroke-miterlimit="2" fill="none"/><text fill="#595959" font-family="Arial,Arial_MSFontService,sans-serif" font-weight="400" font-size="12" transform="matrix(3.4375 0 0 3.4375 2734.21 1367.17)" x="0.09375" y="3.28601">1:16</text><rect x="2848.5" y="1374.5" width="33" height="33" fill="#46BDC6"/><rect x="2848.5" y="1374.5" width="33" height="33" stroke="#38979E" stroke-width="3.4375" stroke-miterlimit="2" fill="none"/><text fill="#595959" font-family="Arial,Arial_MSFontService,sans-serif" font-weight="400" font-size="12" transform="matrix(3.4375 0 0 3.4375 2897.8 1367.17)" x="0.0463068" y="3.28601">1:0</text><rect x="2988.5" y="1374.5" width="33" height="33" fill="#0A49B0"/><rect x="2988.5" y="1374.5" width="33" height="33" stroke="#083A8C" stroke-width="3.4375" stroke-miterlimit="2" fill="none"/><text fill="#595959" font-family="Arial,Arial_MSFontService,sans-serif" font-weight="400" font-size="12" transform="matrix(3.4375 0 0 3.4375 3038.21 1367.17)" x="0.0463068" y="3.28601">0:1</text><path d="M1796 353 3385.5 353 3385.5 1473.62 1796 1473.62Z" fill="#000000" fill-rule="evenodd" fill-opacity="0"/></g></svg>